<svg width="60" height="62" viewBox="0 0 60 62" fill="none" xmlns="http://www.w3.org/2000/svg">
<path d="M29.9999 38.6733C39.652 38.6733 47.5433 30.0076 47.5433 19.3366C47.5433 8.66568 39.652 0 29.9999 0C20.3478 0 12.4565 8.66568 12.4565 19.3366C12.4565 30.0076 20.3478 38.6733 29.9999 38.6733ZM38.152 40.5352C37.3042 40.2488 36.326 40.4636 35.6738 41.1082L29.9999 46.4078L24.326 41.1082C23.6086 40.4636 22.6956 40.2488 21.8477 40.5352C18.1956 41.8243 0 48.6996 0 58.6544C0 60.23 1.17391 61.5191 2.60869 61.5191H57.3911C58.8259 61.5191 59.9998 60.23 59.9998 58.6544C59.9998 48.6996 41.8042 41.8243 38.152 40.5352Z" fill="white"/>
</svg>
